# xmcd
# 
# Track frame offsets:
#     150
#     8929
#     41526
#     71825
#     81372
#     112422
#     135136
#     176584
#     191884
#     201995
# 
# Disc length: 3283
# 
# Revision: 2
# Processed by: cddbd v1.5.2PL0 Copyright (c) Steve Scherf et al.
# Submitted via: fre:ac v1.0.31
# 
DISCID=920cd10a
DTITLE=Camel - Moonmadness  Deluxe Edition  Disc 1
DYEAR=0
DGENRE=Rock/Pop
TTITLE0=Aristillus
TTITLE1=Song within a song
TTITLE2=Chord change
TTITLE3=Spirit of the water
TTITLE4=Another night
TTITLE5=Air born
TTITLE6=Lunar sea
TTITLE7=Another night (single)
TTITLE8=Spirit of the water (demo version)
TTITLE9=Lunar sea (Live)
EXTD=
EXTT0=
EXTT1=
EXTT2=
EXTT3=
EXTT4=
EXTT5=
EXTT6=
EXTT7=
EXTT8=
EXTT9=
PLAYORDER=
